<?xml version="1.0" standalone="no"?><!DOCTYPE svg PUBLIC "-//W3C//DTD SVG 1.1//EN" "http://www.w3.org/Graphics/SVG/1.1/DTD/svg11.dtd"><svg t="1539572655816" class="icon" style="" viewBox="0 0 1024 1024" version="1.1" xmlns="http://www.w3.org/2000/svg" p-id="1160" xmlns:xlink="http://www.w3.org/1999/xlink" width="200" height="200"><defs><style type="text/css"></style></defs><path d="M629.848035 257.736039c34.368762 0 62.241576-28.396747 62.241576-63.449078s-27.872814-63.449078-62.241576-63.449078c-34.372855 0-62.297858 28.396747-62.297858 63.449078S595.47518 257.736039 629.848035 257.736039L629.848035 257.736039zM797.345864 423.403173l-33.844829-0.26299c0 0-77.907371-43.959188-108.086717-88.440262 0 0-16.504906-50.873668-121.18606-50.873668l-161.634284-1.047866c-13.254885 0-28.080545 28.605501-28.080545 28.605501l-82.468247 134.024459c0 0-20.801768 41.284265 16.60826 41.284265 0 0 21.585621 5.552459 37.147038-20.642133l62.033845-86.869486c0 0 11.160177-21.429055 25.986861-20.273742l52.604078 0.415462c0 0 19.122523-2.774183 12.887518 12.736069 0 0-52.916187 77.538981-63.289442 144.865365l0.052189 171.903162c0 0 1.886977 23.311939-17.815761 26.50977-64.444754 0-150.262282 0.208754-150.262282 0.208754s-43.646056-2.986007-43.646056 38.089503c0 0-2.354628 37.358863 41.863457 37.358863l214.393905 0.207731c24.938995-2.145873 30.440289-77.279061 30.440289-77.279061s3.928472-111.756293 22.632463-83.095533c0 0 92.057649 174.677345 123.231649 230.531444 0 0 3.50994 31.80231 44.794206 31.80231 0 0 40.655955-10.216689 33.320896-36.048007L567.81419 553.966811 567.81419 522.216689l42.854017-99.54825c0 0 18.708084-22.265096 31.227212-3.194762 0 0 25.674753 29.600155 93.52507 66.223261l60.510142 0.62831c0 0 33.481556-0.156566 33.481556-31.906687C829.412187 454.41856 834.704726 425.550069 797.345864 423.403173L797.345864 423.403173zM797.345864 423.403173" p-id="1161" fill="#e2382b"></path></svg>